<?xml version="1.0" standalone="no"?>
<!DOCTYPE svg PUBLIC "-//W3C//DTD SVG 20010904//EN"
 "http://www.w3.org/TR/2001/REC-SVG-20010904/DTD/svg10.dtd">
<svg version="1.0" xmlns="http://www.w3.org/2000/svg"
 width="135.000000pt" height="135.000000pt" viewBox="0 0 135.000000 135.000000"
 preserveAspectRatio="xMidYMid meet">
<metadata>
Created by potrace 1.11, written by Peter Selinger 2001-2013
</metadata>
<g transform="translate(0.000000,135.000000) scale(0.100000,-0.100000)"
fill="#000000" stroke="none">
<path d="M619 1256 c-2 -2 -24 -6 -49 -9 -101 -13 -317 -84 -365 -120 -16 -12
-66 -41 -110 -64 -73 -39 -77 -42 -47 -43 24 0 31 -4 26 -12 -6 -10 -4 -10 7
0 19 17 34 15 19 -3 -7 -9 -10 -18 -6 -22 3 -3 6 -2 6 4 0 16 28 24 36 11 4
-6 3 -8 -4 -4 -6 3 -14 1 -18 -6 -4 -7 -4 -10 1 -6 4 4 14 3 22 -4 11 -9 13
-8 11 2 -2 7 3 15 11 18 8 2 11 0 8 -5 -3 -5 7 -9 23 -8 22 0 26 3 18 13 -8 9
-7 11 6 6 9 -3 16 -10 16 -15 0 -5 6 -8 13 -7 6 2 11 -2 10 -9 -2 -8 4 -10 15
-6 9 3 14 3 11 -1 -9 -9 54 -74 65 -68 5 3 6 -5 3 -17 -3 -13 -3 -20 0 -17 10
10 45 -15 39 -30 -3 -7 -2 -13 2 -13 20 3 33 -2 27 -11 -3 -5 1 -10 9 -10 21
0 31 -21 15 -32 -10 -6 -7 -7 10 -3 19 6 23 4 18 -9 -4 -9 -3 -15 1 -15 25 4
33 -3 28 -23 -3 -13 -3 -18 0 -11 3 7 12 9 20 6 12 -4 12 -8 2 -21 -11 -13
-11 -14 0 -8 7 4 19 2 27 -4 12 -10 -16 -42 -159 -186 l-172 -173 -65 -5 c-35
-3 -73 -5 -84 -6 -15 -1 -12 -4 13 -15 17 -8 32 -21 32 -29 0 -8 4 -18 10 -21
6 -4 7 1 4 12 -4 13 0 11 16 -7 12 -14 18 -18 14 -10 -7 13 -5 13 9 1 9 -7 15
-17 12 -21 -3 -5 0 -12 6 -16 8 -5 9 -3 4 6 -5 8 -3 11 6 8 8 -3 13 -13 13
-22 -2 -14 1 -15 14 -4 13 11 15 10 10 -3 -5 -13 -2 -16 14 -11 16 4 19 2 13
-8 -6 -10 -4 -12 8 -7 10 3 17 2 17 -3 0 -6 5 -10 11 -10 5 0 7 6 3 13 -4 6 4
2 18 -11 13 -12 28 -19 31 -15 4 3 7 2 7 -4 0 -6 16 -10 35 -8 19 1 32 -2 29
-7 -3 -4 -10 -5 -16 -2 -7 5 -8 2 -4 -5 5 -7 11 -10 14 -7 3 4 16 -1 30 -10
13 -9 21 -11 18 -5 -4 6 -2 11 3 11 6 0 11 -3 11 -8 0 -4 18 -7 41 -7 22 0 43
-4 46 -9 4 -5 1 -6 -7 -1 -9 5 -11 4 -6 -4 6 -9 11 -9 21 -1 16 13 30 -4 19
-22 -6 -10 -4 -10 7 -2 24 18 48 24 55 12 5 -7 2 -8 -6 -3 -9 6 -11 4 -5 -4 5
-9 14 -6 34 11 14 12 20 16 14 8 -20 -22 -16 -25 28 -26 23 -1 35 2 28 7 -7 4
-17 5 -23 2 -5 -3 -6 -1 -3 4 4 6 18 8 32 6 13 -3 23 -9 20 -12 -5 -9 32 -7
41 2 4 4 12 2 19 -3 8 -7 12 -5 12 5 0 8 -5 11 -10 8 -6 -3 -7 -1 -3 5 10 17
35 3 30 -16 -3 -9 2 -6 10 8 8 14 15 19 16 12 0 -7 5 -10 10 -7 6 4 8 12 4 18
-3 7 1 4 9 -5 11 -14 16 -15 26 -5 9 9 14 9 20 -1 7 -11 10 -10 14 3 4 9 3 13
-3 10 -6 -3 -10 -1 -10 4 0 6 12 11 26 11 14 0 23 4 20 9 -7 11 13 9 33 -3 9
-6 19 -2 30 13 9 12 20 19 24 14 14 -14 36 -11 30 3 -3 8 -2 14 3 13 20 -3 28
2 16 10 -11 7 -10 9 3 14 9 4 13 3 10 -2 -3 -5 -1 -12 4 -15 5 -3 12 1 15 10
3 9 11 12 18 8 8 -5 9 -2 4 11 -6 16 -4 16 11 4 11 -9 14 -10 9 -2 -4 8 -2 13
4 13 6 0 8 5 4 12 -5 8 -2 9 9 5 10 -3 17 -2 17 4 0 6 4 8 9 4 6 -3 15 4 21
15 6 11 15 18 19 15 5 -2 14 2 21 10 8 9 8 15 2 15 -6 0 -13 -6 -15 -12 -4
-10 -6 -10 -6 0 -1 6 -6 12 -12 12 -5 0 -8 -4 -5 -9 3 -5 -1 -14 -9 -21 -10
-9 -15 -9 -15 -1 0 6 5 11 11 11 5 0 8 4 5 9 -6 10 18 34 26 26 3 -3 10 1 17
8 9 12 4 14 -31 14 -115 1 -139 4 -133 13 3 5 -1 10 -10 10 -9 0 -13 5 -10 10
3 6 0 10 -8 10 -16 0 -98 86 -89 94 3 3 -3 6 -12 6 -12 0 -16 5 -13 14 4 11 1
13 -10 9 -11 -4 -14 -2 -9 5 4 7 1 12 -9 12 -9 0 -13 5 -10 10 3 6 0 10 -8 10
-16 0 -58 46 -50 54 4 3 -1 6 -11 6 -9 0 -15 4 -12 9 3 5 -3 11 -14 14 -11 3
-20 10 -20 17 0 6 5 8 12 4 7 -4 8 -3 4 5 -4 6 -11 9 -16 6 -17 -11 -21 15 -6
42 8 16 15 22 16 16 0 -16 30 -17 30 -2 0 5 -5 7 -11 3 -7 -4 -10 -2 -8 5 3 7
7 11 11 9 13 -7 49 37 44 55 -4 15 -2 16 10 6 12 -10 15 -10 12 2 -2 8 -7 18
-13 22 -6 5 -3 7 7 3 13 -4 22 3 33 24 8 16 21 32 27 36 8 5 7 0 -2 -12 -14
-18 -14 -18 3 -5 14 11 15 16 5 29 -10 13 -10 14 0 8 8 -5 12 -1 12 11 0 15 2
15 9 3 6 -8 7 -18 4 -24 -3 -5 -1 -6 5 -3 5 4 8 17 4 29 -3 14 -1 19 6 14 7
-4 14 3 18 19 5 22 9 24 22 13 13 -11 14 -10 4 8 -13 24 -7 35 14 27 10 -4 12
0 8 11 -5 13 -2 15 12 9 11 -3 22 -11 26 -17 5 -8 8 -7 8 1 0 7 6 10 14 7 9
-3 20 3 28 15 l13 21 12 -23 c7 -12 12 -16 13 -9 0 7 4 11 9 8 5 -3 8 2 7 12
-1 12 6 17 22 16 12 -1 22 3 22 7 0 5 -5 9 -11 9 -18 0 -140 61 -194 96 -91
60 -306 123 -426 124 -25 0 -48 -2 -50 -4z m105 -206 c-2 14 -2 19 2 12 3 -6
11 -9 16 -6 7 4 8 2 4 -4 -10 -16 7 -15 23 1 11 10 12 7 6 -13 -3 -14 -3 -20
2 -15 11 13 59 13 56 -1 -1 -6 4 -11 12 -11 7 0 11 6 9 12 -3 6 2 12 10 12 8
0 12 -6 9 -14 -4 -9 0 -11 13 -7 21 8 -18 -35 -135 -152 -68 -67 -101 -85 -87
-47 3 8 1 11 -5 8 -12 -8 -41 14 -33 26 3 5 -2 9 -10 9 -21 0 -31 21 -15 31
10 6 7 8 -11 7 -16 -2 -24 2 -22 10 1 6 -4 11 -10 10 -7 -2 -12 3 -10 10 1 6
-5 12 -14 12 -10 0 -14 5 -10 16 3 9 2 12 -5 8 -6 -3 -19 3 -30 15 l-20 22 26
-5 c23 -4 25 -3 13 11 -12 15 -11 15 12 3 21 -10 23 -10 13 1 -7 7 -13 18 -13
24 0 5 5 3 10 -5 9 -13 11 -13 21 0 9 13 10 12 5 -2 -3 -10 0 -20 6 -24 6 -4
8 -3 5 3 -4 6 0 19 8 29 15 18 15 18 9 -1 -5 -19 -5 -19 9 -2 15 18 16 18 27
0 11 -17 11 -17 7 2 -3 15 2 20 20 21 12 1 20 -2 17 -7 -3 -5 4 -9 15 -9 12 0
21 5 21 11 0 5 -5 7 -12 3 -7 -5 -8 -3 -3 6 6 10 12 7 26 -11 l18 -24 -5 25z
m466 -45 c-7 -9 -15 -13 -19 -10 -3 3 1 10 9 15 21 14 24 12 10 -5z m-35 -5
c3 -6 -1 -7 -9 -4 -18 7 -21 14 -7 14 6 0 13 -4 16 -10z m-247 -266 c-12 -12
-17 -13 -23 -3 -5 7 -4 10 2 6 6 -4 14 0 17 9 4 9 9 14 13 10 4 -3 0 -14 -9
-22z m-178 -248 c0 4 14 -5 30 -21 17 -16 30 -35 30 -42 0 -7 5 -12 12 -11 7
2 12 -2 13 -9 0 -7 6 -18 14 -25 12 -11 13 -10 6 2 -4 8 1 6 12 -5 11 -11 19
-23 16 -27 -2 -5 2 -8 10 -8 8 0 21 -8 28 -17 10 -11 10 -14 2 -9 -7 4 -13 3
-13 -3 0 -6 -30 -20 -67 -31 -86 -27 -189 -29 -268 -5 -33 10 -63 18 -67 17
-4 -1 -5 5 -1 14 5 13 8 13 15 2 7 -9 8 -7 5 8 -4 18 0 22 18 20 17 -2 21 1
17 16 -2 10 1 18 7 18 7 0 9 6 5 13 -6 10 -4 10 7 0 7 -7 18 -13 24 -13 5 0 3
5 -5 10 -10 6 -11 10 -2 10 6 0 12 8 12 18 0 14 2 15 10 2 7 -11 10 -12 10 -2
0 18 26 43 35 34 5 -4 4 -1 0 7 -6 11 -4 13 10 7 14 -5 16 -4 6 8 -9 11 -8 15
5 20 9 3 20 4 24 1 5 -3 12 -1 15 5 4 6 3 10 -2 9 -18 -3 -24 2 -17 13 5 8 13
4 26 -11 10 -13 18 -20 18 -15z m200 -396 c0 -5 -4 -10 -10 -10 -5 0 -10 5
-10 10 0 6 5 10 10 10 6 0 10 -4 10 -10z m-127 -31 c-8 -8 -13 -7 -18 2 -5 8
-4 10 3 5 7 -4 12 -2 12 5 0 7 3 9 7 6 4 -4 2 -12 -4 -18z"/>
<path d="M740 466 c0 -2 8 -10 18 -17 15 -13 16 -12 3 4 -13 16 -21 21 -21 13z"/>
<path d="M1266 1008 c3 -4 9 -8 15 -8 5 0 9 4 9 8 0 5 -7 9 -15 9 -8 0 -12 -4
-9 -9z"/>
<path d="M847 666 c-4 -10 -1 -13 8 -9 8 3 12 9 9 14 -7 12 -11 11 -17 -5z"/>
<path d="M1070 406 c0 -2 8 -10 18 -17 15 -13 16 -12 3 4 -13 16 -21 21 -21
13z"/>
<path d="M296 142 c-3 -5 1 -9 9 -9 8 0 12 4 9 9 -3 4 -7 8 -9 8 -2 0 -6 -4
-9 -8z"/>
<path d="M500 70 c8 -5 20 -10 25 -10 6 0 3 5 -5 10 -8 5 -19 10 -25 10 -5 0
-3 -5 5 -10z"/>
</g>
</svg>
